# xmcd
# 
# Track frame offsets:
#     150
#     26543
#     53981
#     67600
#     89959
#     105488
#     115788
#     129360
#     145397
#     163537
#     177393
#     189138
#     199611
#     214509
#     227980
# 
# Disc length: 3297
# 
# Revision: 3
# Processed by: cddbd v1.5.2PL0 Copyright (c) Steve Scherf et al.
# Submitted via: fre:ac v1.0.31
# 
DISCID=ca0cdf0f
DTITLE=Various Artist - Best Of Blues [CD 2)
DYEAR=0
DGENRE=Blues
TTITLE0=John Mayall and The Bluesbreakers - Ridin' On The L and N
TTITLE1=Muddy Waters - Caldonia
TTITLE2=T-Bone Walker - Call It Stormy Monday
TTITLE3=Luther Allison - Sweet Home Chicago
TTITLE4=George Baze - Little Red Rooster
TTITLE5=James Harman - James Harman - Swamp Night
TTITLE6=Son Seals and The Chicago Fire Band - Every Day I Have The Blues
TTITLE7=Keb' Mo' - Kindhearted Woman Blues
TTITLE8=The Animals and Sonny Boy Williamson - Fattening Frogs For Snakes
TTITLE9=John Lee Hooker - I'm Gonna Kill That Woman
TTITLE10=Little Milton - Runnin' Wild Blues
TTITLE11=Arthur Big Boy Crudup - That's All Right
TTITLE12=Elmore James and His Broodmusters - It Hurts Me Too
TTITLE13=Sonny Boy Williamson - Good Morning Little Schoolgirl
TTITLE14=Albert King - Cadillac Assembly Line
EXTD=
EXTT0=
EXTT1=
EXTT2=
EXTT3=
EXTT4=
EXTT5=
EXTT6=
EXTT7=
EXTT8=
EXTT9=
EXTT10=
EXTT11=
EXTT12=
EXTT13=
EXTT14=
PLAYORDER=
